<?xml version="1.0" encoding="UTF-8"?>
<svg id="Layer_1" data-name="Layer 1" xmlns="http://www.w3.org/2000/svg" viewBox="0 0 1585.5 409">
  <defs>
    <style>
      .cls-1 {
        fill: #ff731d;
      }

      .cls-1, .cls-2 {
        stroke-width: 0px;
      }

      .cls-2 {
        fill: #000;
      }
    </style>
  </defs>
  <path class="cls-1" d="M204.61,71.94c12.44,0,23.86-.65,35.16.2,13.37,0,18.55,9.7,18.55,23.9,0,48.95-.33,157.15-.33,157.15,0,0-24.3,1.37-35.58-1.45-10.71-2.68-17.6-10.98-17.73-21.9-.16-13.21-.06-48.29-.06-48.29l-53.91-1.11-.97,72.45s-26.15,2.22-38.57-1.87c-7.82-2.58-16.51-8.37-16.46-26.84-.07-47.75-.05-152.49-.05-152.49,0,0,24.79-.65,35.98.77,11.85,1.5,18.35,10.42,19,23.77.53,10.79.1,40.98.1,40.98l54.78.31s.09-53.46.09-65.6Z"/>
  <path class="cls-1" d="M407.43,187h-37.44v-28.12c1.75-.27,44.35-.74,64.23-.55,9.88-.06,16.16,4.31,15.72,11.24.17,15.85,1.38,31.69-1.17,47.52-2.83,17.56-13.73,27.57-29.92,32.28-18.34,5.33-37.31,6.55-56.27,5.55-17.1-.91-33.15-6.28-46.81-16.72-12.46-9.52-20.8-22.5-25.52-37.36-8.3-26.17-8.6-52.8.32-78.67,8.49-24.63,25.81-41.33,51.41-48.8,21.88-6.39,43.84-6.09,65.89-1.28,12.11,2.64,22.46,8.97,30.64,17.83,9.38,12.48,8.21,40.13-20.02,40.3-.98-1.37-2.1-3.08-3.38-4.67-11.17-13.83-24.26-17.03-51.16-13.89-17.25,2.95-26.83,15.29-30.8,31.57-3.76,15.42-3.2,30.81,2.98,45.85,3.5,8.52,9.21,14.76,17.14,18.88,14.03,7.3,28.73,8.07,43.76,3.35,10.99-4.15,11.06-20.96,10.4-24.31Z"/>
  <path class="cls-1" d="M494.26,251.45c-10.44-2.78-18.26-11.32-18.06-22.43-.25-2.08-.19-100.6-.2-147.76,0-2.68,0-9.63,0-9.63,0,0,22.67-.17,30.79.24,12.98.66,22.77,10.39,22.82,23.25.21,50.75.14,158.08.14,158.08,0,0-24.28.82-35.49-1.76Z"/>
  <g>
    <path class="cls-2" d="M92.5,322.79h2.33c0,3.96,3.66,6.35,9.41,6.35s9.01-2.48,9.01-6.52c0-4.65-4.31-5.7-9.41-6.39-6.09-.83-10.7-3.13-10.7-8.35,0-4.78,4.31-7.87,10.84-7.87s10.6,3.09,10.6,7.83h-2.28c0-3.61-3.22-5.87-8.32-5.87s-8.47,2.22-8.47,5.87c0,4.39,4.36,5.83,8.77,6.43,6.44.87,11.34,2.78,11.34,8.35,0,5.17-4.51,8.52-11.39,8.52s-11.74-3.26-11.74-8.35Z"/>
    <path class="cls-2" d="M123.4,315.57c0-9.48,5.84-15.56,15-15.56s14.95,6.09,14.95,15.56-5.84,15.56-14.95,15.56-15-6.09-15-15.56ZM150.88,315.57c0-8.35-4.8-13.56-12.48-13.56s-12.53,5.22-12.53,13.56,4.85,13.56,12.53,13.56,12.48-5.22,12.48-13.56Z"/>
    <path class="cls-2" d="M180.15,328.79v2h-16.99v-30.43h2.38v28.43h14.61Z"/>
    <path class="cls-2" d="M187.39,320.31v-19.95h2.38v20c0,5.87,3.37,8.78,8.76,8.78s8.62-2.83,8.62-8.78v-20h2.38v19.95c0,7.09-4.36,10.83-10.99,10.83s-11.14-3.83-11.14-10.83Z"/>
    <path class="cls-2" d="M235.03,331.09l-.5,2.26c2.53.17,3.76,1.61,3.76,3.39,0,2.17-1.73,3.78-4.7,3.78-1.29,0-2.77-.39-4.16-1.43l.74-1.09c1.04.87,2.13,1.17,3.22,1.17,1.98,0,3.17-1.09,3.17-2.52,0-1.35-1.09-2.39-3.12-2.39h-.94l.79-3.13c-8.96-.13-14.21-6.35-14.21-15.56s5.4-15.56,14.51-15.56c6.34,0,11.44,2.91,12.97,8.74h-2.33c-1.49-4.52-5.6-6.74-10.55-6.74-7.78,0-12.13,5.56-12.13,13.56s4.41,13.56,12.13,13.56c5.1,0,9.16-2.3,10.99-7.35h2.43c-1.68,5.74-6.14,8.87-12.08,9.3Z"/>
    <path class="cls-2" d="M254.64,315.57c0-9.48,5.84-15.56,15-15.56s14.95,6.09,14.95,15.56-5.84,15.56-14.95,15.56-15-6.09-15-15.56ZM282.12,315.57c0-8.35-4.8-13.56-12.48-13.56s-12.53,5.22-12.53,13.56,4.85,13.56,12.53,13.56,12.48-5.22,12.48-13.56ZM267.17,294.31c-.94,0-1.53.57-2.18,1.74l-1.44-.57c.55-1.43,1.93-2.74,3.57-2.74,2.13,0,3.42,1.78,5,1.78,1.04,0,1.68-.83,2.08-1.61l1.44.52c-.79,1.78-1.93,2.7-3.37,2.7-2.28,0-3.52-1.83-5.1-1.83Z"/>
    <path class="cls-2" d="M311.69,328.79v2h-17.28v-30.43h17.08v2h-14.71v11.65h14.11v1.96h-14.11v12.82h14.91Z"/>
    <path class="cls-2" d="M319.27,322.79h2.33c0,3.96,3.66,6.35,9.41,6.35s9.01-2.48,9.01-6.52c0-4.65-4.31-5.7-9.41-6.39-6.09-.83-10.7-3.13-10.7-8.35,0-4.78,4.31-7.87,10.84-7.87s10.6,3.09,10.6,7.83h-2.28c0-3.61-3.22-5.87-8.32-5.87s-8.47,2.22-8.47,5.87c0,4.39,4.36,5.83,8.77,6.43,6.44.87,11.34,2.78,11.34,8.35,0,5.17-4.51,8.52-11.39,8.52s-11.74-3.26-11.74-8.35Z"/>
    <path class="cls-2" d="M398.46,302.36h-9.66v28.43h-2.38v-28.43h-9.61v-2h21.64v2Z"/>
    <path class="cls-2" d="M424.11,328.79v2h-17.28v-30.43h17.08v2h-14.71v11.65h14.11v1.96h-14.11v12.82h14.9Z"/>
    <path class="cls-2" d="M432.28,315.57c0-9.13,5.4-15.56,14.51-15.56,6.34,0,11.44,2.91,12.97,8.74h-2.33c-1.49-4.52-5.6-6.74-10.55-6.74-7.78,0-12.13,5.56-12.13,13.56s4.41,13.56,12.13,13.56c5.1,0,9.16-2.3,10.99-7.35h2.43c-1.83,6.22-6.88,9.35-13.52,9.35-9.11,0-14.51-6.26-14.51-15.56Z"/>
    <path class="cls-2" d="M492.75,300.36v30.47h-.94l-19.86-25.56.1,8.13v17.39h-2.38v-30.47h.94l19.81,25.43-.05-8.26v-17.13h2.38Z"/>
    <path class="cls-2" d="M502.56,315.57c0-9.48,5.84-15.56,15-15.56s14.95,6.09,14.95,15.56-5.84,15.56-14.95,15.56-15-6.09-15-15.56ZM530.04,315.57c0-8.35-4.8-13.56-12.48-13.56s-12.53,5.22-12.53,13.56,4.85,13.56,12.53,13.56,12.48-5.22,12.48-13.56Z"/>
    <path class="cls-2" d="M559.31,328.79v2h-16.99v-30.43h2.38v28.43h14.61Z"/>
    <path class="cls-2" d="M564.66,315.57c0-9.48,5.84-15.56,15-15.56s14.95,6.09,14.95,15.56-5.84,15.56-14.95,15.56-15-6.09-15-15.56ZM592.14,315.57c0-8.35-4.8-13.56-12.48-13.56s-12.53,5.22-12.53,13.56,4.85,13.56,12.53,13.56,12.48-5.22,12.48-13.56ZM578.08,297.01l5.79-6,1.93.87v.22l-5.74,5.04h-1.98v-.13Z"/>
    <path class="cls-2" d="M631.81,316.01c0,8.22-4.51,15.13-14.31,15.13-8.86,0-14.91-5.83-14.91-15.56s6.04-15.56,14.91-15.56c5.69,0,11.14,2.22,13.22,8.48h-2.38c-1.78-4.74-6.19-6.48-10.84-6.48-7.43,0-12.43,5-12.43,13.56s5,13.56,12.43,13.56,11.59-4.17,11.98-12h-11.98v-1.96h14.26c.05.39.05.57.05.83Z"/>
    <path class="cls-2" d="M641.08,300.36h2.38v30.43h-2.38v-30.43Z"/>
    <path class="cls-2" d="M653.31,315.57c0-9.13,5.4-15.56,14.51-15.56,6.34,0,11.44,2.91,12.97,8.74h-2.33c-1.49-4.52-5.6-6.74-10.55-6.74-7.78,0-12.13,5.56-12.13,13.56s4.41,13.56,12.13,13.56c5.1,0,9.16-2.3,10.99-7.35h2.43c-1.83,6.22-6.88,9.35-13.52,9.35-9.11,0-14.51-6.26-14.51-15.56Z"/>
    <path class="cls-2" d="M715.46,330.7v.09h-2.53l-3.76-8.43h-16.14l-3.81,8.43h-2.48v-.09l13.91-30.43h.99l13.82,30.43ZM693.87,320.4h14.46l-7.18-16.39-7.28,16.39Z"/>
    <path class="cls-2" d="M720.91,322.79h2.33c0,3.96,3.66,6.35,9.41,6.35s9.01-2.48,9.01-6.52c0-4.65-4.31-5.7-9.41-6.39-6.09-.83-10.7-3.13-10.7-8.35,0-4.78,4.31-7.87,10.84-7.87s10.6,3.09,10.6,7.83h-2.28c0-3.61-3.22-5.87-8.32-5.87s-8.47,2.22-8.47,5.87c0,4.39,4.36,5.83,8.77,6.43,6.44.87,11.34,2.78,11.34,8.35,0,5.17-4.51,8.52-11.39,8.52s-11.74-3.26-11.74-8.35Z"/>
    <path class="cls-2" d="M803.96,310.05c0,6-4.31,9.74-11.34,9.74h-8.02v11h-2.38v-30.43h10.4c7.03,0,11.34,3.74,11.34,9.69ZM801.53,310.09c0-4.91-3.27-7.78-8.91-7.78h-8.02v15.52h8.02c5.65,0,8.91-2.87,8.91-7.74Z"/>
    <path class="cls-2" d="M836.49,330.7v.09h-2.53l-3.76-8.43h-16.14l-3.81,8.43h-2.48v-.09l13.91-30.43h.99l13.82,30.43ZM814.9,320.4h14.46l-7.18-16.39-7.28,16.39Z"/>
    <path class="cls-2" d="M867.35,330.66v.13h-2.62l-8.96-11.91h-8.76v11.91h-2.38v-30.43h10.84c6.69,0,10.6,3.39,10.6,9.17,0,4.91-2.97,8.3-7.77,9.13l9.06,12ZM846.99,316.92h8.67c5.05,0,7.97-2.78,7.97-7.35s-2.87-7.26-8.22-7.26h-8.42v14.61Z"/>
    <path class="cls-2" d="M901.57,330.7v.09h-2.53l-3.76-8.43h-16.14l-3.81,8.43h-2.48v-.09l13.91-30.43h.99l13.82,30.43ZM879.98,320.4h14.46l-7.18-16.39-7.28,16.39Z"/>
    <path class="cls-2" d="M935.05,315.57c0-9.48,5.84-15.56,15-15.56s14.95,6.09,14.95,15.56-5.84,15.56-14.95,15.56-15-6.09-15-15.56ZM962.53,315.57c0-8.35-4.8-13.56-12.48-13.56s-12.53,5.22-12.53,13.56,4.85,13.56,12.53,13.56,12.48-5.22,12.48-13.56Z"/>
    <path class="cls-2" d="M1000.47,322.79h2.33c0,3.96,3.66,6.35,9.41,6.35s9.01-2.48,9.01-6.52c0-4.65-4.31-5.7-9.41-6.39-6.09-.83-10.7-3.13-10.7-8.35,0-4.78,4.31-7.87,10.84-7.87s10.6,3.09,10.6,7.83h-2.28c0-3.61-3.22-5.87-8.32-5.87s-8.47,2.22-8.47,5.87c0,4.39,4.36,5.83,8.77,6.43,6.44.87,11.34,2.78,11.34,8.35,0,5.17-4.51,8.52-11.39,8.52s-11.74-3.26-11.74-8.35Z"/>
    <path class="cls-2" d="M1050.49,328.79v2h-17.28v-30.43h17.08v2h-14.71v11.65h14.11v1.96h-14.11v12.82h14.91Z"/>
    <path class="cls-2" d="M1079.06,302.36h-9.66v28.43h-2.38v-28.43h-9.61v-2h21.64v2Z"/>
    <path class="cls-2" d="M1084.16,315.57c0-9.48,5.84-15.56,15-15.56s14.95,6.09,14.95,15.56-5.84,15.56-14.95,15.56-15-6.09-15-15.56ZM1111.65,315.57c0-8.35-4.8-13.56-12.48-13.56s-12.53,5.22-12.53,13.56,4.85,13.56,12.53,13.56,12.48-5.22,12.48-13.56Z"/>
    <path class="cls-2" d="M1146.66,330.66v.13h-2.62l-8.96-11.91h-8.76v11.91h-2.38v-30.43h10.84c6.69,0,10.6,3.39,10.6,9.17,0,4.91-2.97,8.3-7.77,9.13l9.06,12ZM1126.31,316.92h8.67c5.05,0,7.97-2.78,7.97-7.35s-2.87-7.26-8.22-7.26h-8.42v14.61Z"/>
    <path class="cls-2" d="M1184.45,300.36h2.38v30.43h-2.38v-30.43Z"/>
    <path class="cls-2" d="M1221.59,300.36v30.47h-.94l-19.86-25.56.1,8.13v17.39h-2.38v-30.47h.94l19.81,25.43-.05-8.26v-17.13h2.38Z"/>
    <path class="cls-2" d="M1258.29,315.57c0,9.09-5.79,15.22-14.81,15.22h-10.25v-30.43h10.25c9.06,0,14.81,6.22,14.81,15.21ZM1255.81,315.57c0-7.91-4.66-13.22-12.38-13.22h-7.82v26.43h7.82c7.68,0,12.38-5.17,12.38-13.22Z"/>
    <path class="cls-2" d="M1267.9,320.31v-19.95h2.38v20c0,5.87,3.37,8.78,8.76,8.78s8.62-2.83,8.62-8.78v-20h2.38v19.95c0,7.09-4.36,10.83-10.99,10.83s-11.14-3.83-11.14-10.83Z"/>
    <path class="cls-2" d="M1299.34,322.79h2.33c0,3.96,3.66,6.35,9.41,6.35s9.01-2.48,9.01-6.52c0-4.65-4.31-5.7-9.41-6.39-6.09-.83-10.7-3.13-10.7-8.35,0-4.78,4.31-7.87,10.84-7.87s10.6,3.09,10.6,7.83h-2.28c0-3.61-3.22-5.87-8.32-5.87s-8.47,2.22-8.47,5.87c0,4.39,4.36,5.83,8.77,6.43,6.44.87,11.34,2.78,11.34,8.35,0,5.17-4.51,8.52-11.39,8.52s-11.74-3.26-11.74-8.35Z"/>
    <path class="cls-2" d="M1349.86,302.36h-9.66v28.43h-2.38v-28.43h-9.61v-2h21.64v2Z"/>
    <path class="cls-2" d="M1380.96,330.66v.13h-2.62l-8.96-11.91h-8.76v11.91h-2.38v-30.43h10.84c6.69,0,10.6,3.39,10.6,9.17,0,4.91-2.97,8.3-7.77,9.13l9.06,12ZM1360.61,316.92h8.67c5.05,0,7.97-2.78,7.97-7.35s-2.87-7.26-8.22-7.26h-8.42v14.61Z"/>
    <path class="cls-2" d="M1389.92,300.36h2.38v30.43h-2.38v-30.43Z"/>
    <path class="cls-2" d="M1429.39,330.7v.09h-2.53l-3.76-8.43h-16.14l-3.81,8.43h-2.48v-.09l13.92-30.43h.99l13.82,30.43ZM1407.8,320.4h14.46l-7.18-16.39-7.28,16.39Z"/>
    <path class="cls-2" d="M1454.5,328.79v2h-16.99v-30.43h2.38v28.43h14.61Z"/>
  </g>
  <g>
    <path class="cls-2" d="M569.01,125.12h31.11v124.45h-31.11v-124.45Z"/>
    <path class="cls-2" d="M711.24,125.12v125.34h-13.16l-49.96-60.98.71,19.2v40.89h-30.4v-125.51h13.16l49.96,60.27-.71-21.33v-37.87h30.4Z"/>
    <path class="cls-2" d="M827.15,186.99c0,39.29-20.62,62.58-56.53,62.58h-40.71v-124.45h40.71c35.91,0,56.53,22.93,56.53,61.87ZM796.04,186.99c0-21.69-9.07-32.89-25.96-32.89h-9.07v66.49h9.07c17.07,0,25.96-11.73,25.96-33.6Z"/>
    <path class="cls-2" d="M839.59,207.97v-82.85h30.76v82.14c0,9.24,4.8,14.76,13.87,14.76s14.05-5.51,14.05-14.76v-82.14h30.76v82.85c0,25.96-17.42,43.38-44.8,43.38s-44.62-17.42-44.62-43.38Z"/>
    <path class="cls-2" d="M941.82,210.28h29.51c0,8,5.51,12.62,14.76,12.62s14.76-3.73,14.76-9.96c0-8.18-8.18-10.49-19.2-12.62-25.96-4.98-38.22-17.6-38.22-39.29s17.07-37.69,42.49-37.69,42.67,16,42.67,40.36h-29.33c0-7.64-4.8-12.27-13.33-12.27-7.64,0-12.27,3.56-12.27,9.6,0,4.44,2.13,9.24,16,12.09,28.8,5.87,41.78,17.07,41.78,39.29s-17.96,38.93-44.8,38.93-44.8-16-44.8-41.07Z"/>
    <path class="cls-2" d="M1114.09,154.1h-24v95.47h-30.76v-95.47h-24v-28.98h78.76v28.98Z"/>
    <path class="cls-2" d="M1216.67,247.97v1.6h-32.36l-16.36-38.93h-12.62v38.93h-30.76v-124.45h42.49c26.49,0,44.27,17.42,44.27,42.49,0,15.47-5.87,27.73-16.18,35.2l21.51,45.16ZM1165.83,183.79c9.07,0,14.4-5.51,14.4-15.29s-5.33-15.29-14.4-15.29h-10.49v30.58h10.49Z"/>
    <path class="cls-2" d="M1227.52,125.12h31.11v124.45h-31.11v-124.45Z"/>
    <path class="cls-2" d="M1375.96,247.62v1.96h-32.18l-5.69-16h-34.85l-5.69,16h-32v-1.96l48.18-123.74h14.22l48,123.74ZM1312.5,206.19h16.36l-8-30.4-8.36,30.4Z"/>
    <path class="cls-2" d="M1448.5,220.59v28.98h-65.25v-124.45h30.76v95.47h34.49Z"/>
  </g>
</svg>