<?xml version="1.0" encoding="UTF-8"?>
<svg id="Layer_1" data-name="Layer 1" xmlns="http://www.w3.org/2000/svg" viewBox="0 0 1571 320">
  <defs>
    <style>
      .cls-1 {
        fill: #ff731d;
      }

      .cls-1, .cls-2 {
        stroke-width: 0px;
      }

      .cls-2 {
        fill: #000;
      }
    </style>
  </defs>
  <path class="cls-1" d="M204.11,52.94c12.44,0,23.86-.65,35.16.2,13.37,0,18.55,9.7,18.55,23.9,0,48.95-.33,157.15-.33,157.15,0,0-24.3,1.37-35.58-1.45-10.71-2.68-17.6-10.98-17.73-21.9-.16-13.21-.06-48.29-.06-48.29l-53.91-1.11-.97,72.45s-26.15,2.22-38.57-1.87c-7.82-2.58-16.51-8.37-16.46-26.84-.07-47.75-.05-152.49-.05-152.49,0,0,24.79-.65,35.98.77,11.85,1.5,18.35,10.42,19,23.77.53,10.79.1,40.98.1,40.98l54.78.31s.09-53.46.09-65.6Z"/>
  <path class="cls-1" d="M406.93,168h-37.44v-28.12c1.75-.27,44.35-.74,64.23-.55,9.88-.06,16.16,4.31,15.72,11.24.17,15.85,1.38,31.69-1.17,47.52-2.83,17.56-13.73,27.57-29.92,32.28-18.34,5.33-37.31,6.55-56.27,5.55-17.1-.91-33.15-6.28-46.81-16.72-12.46-9.52-20.8-22.5-25.52-37.36-8.3-26.17-8.6-52.8.32-78.67,8.49-24.63,25.81-41.33,51.41-48.8,21.88-6.39,43.84-6.09,65.89-1.28,12.11,2.64,22.46,8.97,30.64,17.83,9.38,12.48,8.21,40.13-20.02,40.3-.98-1.37-2.1-3.08-3.38-4.67-11.17-13.83-24.26-17.03-51.16-13.89-17.25,2.95-26.83,15.29-30.8,31.57-3.76,15.42-3.2,30.81,2.98,45.85,3.5,8.52,9.21,14.76,17.14,18.88,14.03,7.3,28.73,8.07,43.76,3.35,10.99-4.15,11.06-20.96,10.4-24.31Z"/>
  <path class="cls-1" d="M493.76,232.45c-10.44-2.78-18.26-11.32-18.06-22.43-.25-2.08-.19-100.6-.2-147.76,0-2.68,0-9.63,0-9.63,0,0,22.67-.17,30.79.24,12.98.66,22.77,10.39,22.82,23.25.21,50.75.14,158.08.14,158.08,0,0-24.28.82-35.49-1.76Z"/>
  <g>
    <path class="cls-2" d="M568.51,106.12h31.11v124.45h-31.11v-124.45Z"/>
    <path class="cls-2" d="M710.74,106.12v125.34h-13.16l-49.96-60.98.71,19.2v40.89h-30.4v-125.51h13.16l49.96,60.27-.71-21.33v-37.87h30.4Z"/>
    <path class="cls-2" d="M826.65,167.99c0,39.29-20.62,62.58-56.53,62.58h-40.71v-124.45h40.71c35.91,0,56.53,22.93,56.53,61.87ZM795.54,167.99c0-21.69-9.07-32.89-25.96-32.89h-9.07v66.49h9.07c17.07,0,25.96-11.73,25.96-33.6Z"/>
    <path class="cls-2" d="M839.09,188.97v-82.85h30.76v82.14c0,9.24,4.8,14.76,13.87,14.76s14.05-5.51,14.05-14.76v-82.14h30.76v82.85c0,25.96-17.42,43.38-44.8,43.38s-44.62-17.42-44.62-43.38Z"/>
    <path class="cls-2" d="M941.32,191.28h29.51c0,8,5.51,12.62,14.76,12.62s14.76-3.73,14.76-9.96c0-8.18-8.18-10.49-19.2-12.62-25.96-4.98-38.22-17.6-38.22-39.29s17.07-37.69,42.49-37.69,42.67,16,42.67,40.36h-29.33c0-7.64-4.8-12.27-13.33-12.27-7.64,0-12.27,3.56-12.27,9.6,0,4.44,2.13,9.24,16,12.09,28.8,5.87,41.78,17.07,41.78,39.29s-17.96,38.93-44.8,38.93-44.8-16-44.8-41.07Z"/>
    <path class="cls-2" d="M1113.59,135.1h-24v95.47h-30.76v-95.47h-24v-28.98h78.76v28.98Z"/>
    <path class="cls-2" d="M1216.17,228.97v1.6h-32.36l-16.36-38.93h-12.62v38.93h-30.76v-124.45h42.49c26.49,0,44.27,17.42,44.27,42.49,0,15.47-5.87,27.73-16.18,35.2l21.51,45.16ZM1165.33,164.79c9.07,0,14.4-5.51,14.4-15.29s-5.33-15.29-14.4-15.29h-10.49v30.58h10.49Z"/>
    <path class="cls-2" d="M1227.02,106.12h31.11v124.45h-31.11v-124.45Z"/>
    <path class="cls-2" d="M1375.46,228.62v1.96h-32.18l-5.69-16h-34.85l-5.69,16h-32v-1.96l48.18-123.74h14.22l48,123.74ZM1312,187.19h16.36l-8-30.4-8.36,30.4Z"/>
    <path class="cls-2" d="M1448,201.59v28.98h-65.25v-124.45h30.76v95.47h34.49Z"/>
  </g>
</svg>